<?xml version="1.0" encoding="UTF-8"?>
<svg id="Layer_1" data-name="Layer 1" xmlns="http://www.w3.org/2000/svg" viewBox="0 0 368.85 186.03">
  <defs>
    <style>
      .cls-1 {
        fill: #f58a1f;
      }

      .cls-2 {
        fill: #2a2b2a;
      }

      .cls-3 {
        fill: #2359a4;
      }
    </style>
  </defs>
  <g>
    <path class="cls-2" d="M0,177.46c0-3.22,2.46-5.58,5.78-5.58,1.68,0,3.15.58,4.14,1.7l-1.01.98c-.84-.89-1.87-1.29-3.07-1.29-2.46,0-4.28,1.78-4.28,4.19s1.82,4.19,4.28,4.19c1.2,0,2.23-.42,3.07-1.31l1.01.98c-1,1.12-2.46,1.71-4.16,1.71-3.3,0-5.77-2.35-5.77-5.58Z"/>
    <path class="cls-2" d="M15.51,178.79c0-2.46,1.82-4.21,4.3-4.21s4.28,1.75,4.28,4.21-1.81,4.22-4.28,4.22-4.3-1.76-4.3-4.22ZM22.59,178.79c0-1.76-1.18-2.9-2.77-2.9s-2.79,1.14-2.79,2.9,1.2,2.91,2.79,2.91,2.77-1.15,2.77-2.91Z"/>
    <path class="cls-2" d="M38.69,178.16v4.75h-1.5v-4.58c0-1.62-.81-2.41-2.23-2.41-1.59,0-2.62.95-2.62,2.74v4.25h-1.5v-8.26h1.43v1.25c.61-.84,1.67-1.32,2.98-1.32,2.01,0,3.43,1.15,3.43,3.58Z"/>
    <path class="cls-2" d="M53.98,178.16v4.75h-1.5v-4.58c0-1.62-.81-2.41-2.23-2.41-1.59,0-2.62.95-2.62,2.74v4.25h-1.5v-8.26h1.43v1.25c.61-.84,1.67-1.32,2.98-1.32,2.01,0,3.43,1.15,3.43,3.58Z"/>
    <path class="cls-2" d="M68.92,179.28h-6.7c.19,1.45,1.36,2.41,2.99,2.41.97,0,1.78-.33,2.38-1l.83.97c-.75.87-1.88,1.34-3.26,1.34-2.66,0-4.44-1.76-4.44-4.22s1.76-4.21,4.14-4.21,4.08,1.71,4.08,4.25c0,.12-.02.31-.03.45ZM62.22,178.21h5.3c-.16-1.39-1.2-2.37-2.65-2.37s-2.49.97-2.65,2.37Z"/>
    <path class="cls-2" d="M74.94,178.79c0-2.46,1.82-4.21,4.36-4.21,1.48,0,2.71.61,3.36,1.76l-1.14.73c-.53-.81-1.34-1.18-2.24-1.18-1.62,0-2.83,1.14-2.83,2.9s1.22,2.91,2.83,2.91c.9,0,1.71-.37,2.24-1.18l1.14.72c-.66,1.15-1.89,1.78-3.36,1.78-2.54,0-4.36-1.76-4.36-4.22Z"/>
    <path class="cls-2" d="M94.04,182.43c-.45.39-1.14.58-1.81.58-1.67,0-2.62-.92-2.62-2.59v-4.53h-1.4v-1.23h1.4v-1.81h1.5v1.81h2.37v1.23h-2.37v4.47c0,.89.47,1.39,1.29,1.39.44,0,.86-.14,1.17-.39l.47,1.07Z"/>
    <path class="cls-2" d="M100.26,172.1c0-.55.44-.98,1.01-.98s1.01.42,1.01.95c0,.56-.42,1-1.01,1s-1.01-.42-1.01-.97ZM100.53,174.66h1.5v8.26h-1.5v-8.26Z"/>
    <path class="cls-2" d="M117.39,178.16v4.75h-1.5v-4.58c0-1.62-.81-2.41-2.23-2.41-1.59,0-2.62.95-2.62,2.74v4.25h-1.5v-8.26h1.43v1.25c.61-.84,1.67-1.32,2.98-1.32,2.01,0,3.43,1.15,3.43,3.58Z"/>
    <path class="cls-2" d="M132.79,174.66v7.13c0,2.91-1.48,4.24-4.28,4.24-1.51,0-3.04-.42-3.94-1.23l.72-1.15c.76.66,1.96,1.08,3.18,1.08,1.95,0,2.84-.9,2.84-2.77v-.66c-.72.86-1.79,1.28-2.98,1.28-2.38,0-4.19-1.62-4.19-4s1.81-3.99,4.19-3.99c1.23,0,2.35.45,3.05,1.36v-1.28h1.42ZM131.33,178.57c0-1.6-1.18-2.68-2.83-2.68s-2.85,1.08-2.85,2.68,1.18,2.7,2.85,2.7,2.83-1.11,2.83-2.7Z"/>
    <path class="cls-2" d="M149.42,172.01h1.56v10.91h-1.56v-10.91Z"/>
    <path class="cls-2" d="M166.55,178.16v4.75h-1.5v-4.58c0-1.62-.81-2.41-2.23-2.41-1.59,0-2.62.95-2.62,2.74v4.25h-1.5v-8.26h1.43v1.25c.61-.84,1.67-1.32,2.98-1.32,2.01,0,3.43,1.15,3.43,3.58Z"/>
    <path class="cls-2" d="M181.84,171.35v11.56h-1.43v-1.31c-.67.94-1.73,1.4-2.94,1.4-2.42,0-4.18-1.7-4.18-4.22s1.76-4.21,4.18-4.21c1.17,0,2.2.44,2.88,1.32v-4.55h1.5ZM180.36,178.79c0-1.76-1.2-2.9-2.77-2.9s-2.79,1.14-2.79,2.9,1.2,2.91,2.79,2.91,2.77-1.15,2.77-2.91Z"/>
    <path class="cls-2" d="M189.1,172.1c0-.55.44-.98,1.01-.98s1.01.42,1.01.95c0,.56-.42,1-1.01,1s-1.01-.42-1.01-.97ZM189.36,174.66h1.5v8.26h-1.5v-8.26Z"/>
    <path class="cls-2" d="M204.93,177.93v4.99h-1.42v-1.09c-.5.75-1.42,1.18-2.71,1.18-1.87,0-3.05-1-3.05-2.43,0-1.32.86-2.41,3.32-2.41h2.37v-.3c0-1.26-.73-1.99-2.21-1.99-.98,0-1.98.34-2.62.89l-.62-1.12c.86-.69,2.09-1.06,3.41-1.06,2.26,0,3.54,1.09,3.54,3.35ZM203.44,180.39v-1.15h-2.31c-1.48,0-1.9.58-1.9,1.28,0,.83.69,1.34,1.82,1.34s2.01-.51,2.38-1.47Z"/>
    <path class="cls-2" d="M225.9,182.43c-.45.39-1.14.58-1.81.58-1.67,0-2.62-.92-2.62-2.59v-4.53h-1.4v-1.23h1.4v-1.81h1.5v1.81h2.37v1.23h-2.37v4.47c0,.89.47,1.39,1.29,1.39.44,0,.86-.14,1.17-.39l.47,1.07Z"/>
    <path class="cls-2" d="M231.35,178.79c0-2.46,1.82-4.21,4.3-4.21s4.28,1.75,4.28,4.21-1.81,4.22-4.28,4.22-4.3-1.76-4.3-4.22ZM238.42,178.79c0-1.76-1.19-2.9-2.77-2.9s-2.79,1.14-2.79,2.9,1.2,2.91,2.79,2.91,2.77-1.15,2.77-2.91Z"/>
    <path class="cls-2" d="M260.2,182.43c-.45.39-1.14.58-1.81.58-1.67,0-2.62-.92-2.62-2.59v-4.53h-1.4v-1.23h1.4v-1.81h1.5v1.81h2.37v1.23h-2.37v4.47c0,.89.47,1.39,1.29,1.39.44,0,.86-.14,1.17-.39l.47,1.07Z"/>
    <path class="cls-2" d="M274.53,178.16v4.75h-1.5v-4.58c0-1.62-.81-2.41-2.23-2.41-1.59,0-2.62.95-2.62,2.74v4.25h-1.5v-11.56h1.5v4.47c.62-.8,1.65-1.25,2.91-1.25,2.01,0,3.43,1.15,3.43,3.58Z"/>
    <path class="cls-2" d="M289.46,179.28h-6.7c.19,1.45,1.36,2.41,2.99,2.41.97,0,1.78-.33,2.38-1l.83.97c-.75.87-1.88,1.34-3.26,1.34-2.66,0-4.44-1.76-4.44-4.22s1.76-4.21,4.14-4.21,4.08,1.71,4.08,4.25c0,.12-.02.31-.03.45ZM282.76,178.21h5.3c-.16-1.39-1.2-2.37-2.65-2.37s-2.49.97-2.65,2.37Z"/>
    <path class="cls-2" d="M320.75,172.01l-3.65,10.91h-1.64l-2.98-8.71-2.98,8.71h-1.67l-3.65-10.91h1.6l2.94,8.87,3.07-8.87h1.43l3.01,8.91,3.01-8.91h1.48Z"/>
    <path class="cls-2" d="M325.73,178.79c0-2.46,1.82-4.21,4.3-4.21s4.28,1.75,4.28,4.21-1.81,4.22-4.28,4.22-4.3-1.76-4.3-4.22ZM332.8,178.79c0-1.76-1.18-2.9-2.77-2.9s-2.79,1.14-2.79,2.9,1.2,2.91,2.79,2.91,2.77-1.15,2.77-2.91Z"/>
    <path class="cls-2" d="M345.51,174.58v1.45c-.12-.02-.23-.02-.34-.02-1.61,0-2.6.98-2.6,2.79v4.11h-1.5v-8.26h1.43v1.39c.53-.97,1.56-1.46,3.01-1.46Z"/>
    <path class="cls-2" d="M352.03,171.35h1.5v11.56h-1.5v-11.56Z"/>
    <path class="cls-2" d="M368.85,171.35v11.56h-1.43v-1.31c-.67.94-1.73,1.4-2.94,1.4-2.42,0-4.18-1.7-4.18-4.22s1.76-4.21,4.18-4.21c1.17,0,2.2.44,2.88,1.32v-4.55h1.5ZM367.37,178.79c0-1.76-1.2-2.9-2.77-2.9s-2.79,1.14-2.79,2.9,1.2,2.91,2.79,2.91,2.77-1.15,2.77-2.91Z"/>
  </g>
  <path class="cls-3" d="M45.76,30.5h10.66v24.18c-6.33,5.11-15.17,7.71-23.74,7.71C13.87,62.39,0,49.31,0,31.2S13.87,0,32.84,0c10.14,0,18.63,3.38,24.35,9.88l-7.11,6.93c-4.77-4.77-10.23-6.93-16.73-6.93-12.91,0-22.01,8.75-22.01,21.32s9.1,21.32,21.93,21.32c4.33,0,8.58-.87,12.48-3.12v-18.89Z"/>
  <path class="cls-3" d="M248.9,45.06c0,10.4-8.15,16.47-23.74,16.47h-30.16V.87h28.42c14.56,0,22.36,6.15,22.36,15.77,0,6.24-3.12,10.83-7.8,13.34,6.5,2.08,10.92,7.19,10.92,15.08ZM206.26,9.71v16.73h15.95c7.8,0,12.22-2.77,12.22-8.32s-4.42-8.41-12.22-8.41h-15.95ZM237.55,43.94c0-6.07-4.59-8.75-13.08-8.75h-18.2v17.5h18.2c8.49,0,13.08-2.69,13.08-8.75Z"/>
  <path class="cls-3" d="M300.3,47.49h-30.33l-5.98,14.04h-11.61L279.67.87h11.09l27.38,60.66h-11.79l-6.07-14.04ZM296.57,38.65l-11.44-26.52-11.35,26.52h22.79Z"/>
  <path class="cls-3" d="M325.87.87h11.27v51.13h31.72v9.53h-42.98V.87Z"/>
  <g>
    <path class="cls-3" d="M62.73,87.15v70.6h-10.79L13.01,109.94v47.8H0v-70.6h10.79l38.93,47.8v-47.8h13.01Z"/>
    <path class="cls-1" d="M78.77,89.4c0-4.23,3.43-7.56,8.07-7.56s8.07,3.13,8.07,7.26c0,4.44-3.33,7.87-8.07,7.87s-8.07-3.33-8.07-7.56ZM80.49,103.89h12.61v53.86h-12.61v-53.86Z"/>
    <path class="cls-3" d="M157.04,157.75l-14.42-20.68c-.91.1-1.82.1-2.72.1h-15.93v20.57h-13.11v-70.6h29.05c18.56,0,30.05,9.48,30.05,25.11,0,10.69-5.45,18.56-15.03,22.29l16.24,23.2h-14.12ZM139.29,98.24h-15.33v28.14h15.33c11.5,0,17.45-5.24,17.45-14.12s-5.95-14.02-17.45-14.02Z"/>
    <path class="cls-3" d="M214.03,132.84v24.91h-13.11v-24.71l-27.74-45.89h14.02l20.67,34.39,20.88-34.39h12.91l-27.63,45.69Z"/>
    <path class="cls-3" d="M291.79,141.41h-35.3l-6.96,16.34h-13.51l31.77-70.6h12.91l31.87,70.6h-13.72l-7.06-16.34ZM287.45,131.12l-13.31-30.86-13.21,30.86h26.52Z"/>
    <path class="cls-3" d="M332.34,98.24h-23.4v-11.09h59.91v11.09h-23.4v59.5h-13.11v-59.5Z"/>
  </g>
  <path class="cls-3" d="M148.85.25c-15.06,0-27.68,10.47-30.77,24.42l2.43.46c2.42-10.78,10.99-19.29,21.89-21.74-3.3,2.79-5.4,7.23-6.71,11.06-.37,1.11-.71,2.29-1,3.5-5.24,1.35-10.33,3.62-13.75,7.26l1.41.27c.73-.72,1.57-1.39,2.49-1.98,2.81-1.79,6.06-3.11,9.51-4.04-.54,2.56-.89,5.3-1.06,8.11l1.84.35c.22-3.15.68-6.2,1.37-8.99,8-1.75,16.87-1.52,24.12.01,5.7,1.3,12.02,3.48,15.72,8.13.97,1.27,1.5,2.68,1.57,4.1,0,.05,0,.1,0,.15,0,.07,0,.15,0,.22,0,1.36-.42,2.73-1.32,3.98-3.02,4.14-8.43,6.42-13.62,7.75,1.41-6.89,1.36-14.3.44-20.29-.08-.48-.8-.36-.73.11.92,6.63.71,13.42-.69,19.96-.04.16-.08.33-.12.5-.93.22-1.85.41-2.74.58-5.19.89-10.52,1.05-15.76.55l.18-1.62-2.25,1.2-2.25,1.2,1.94,1.64,1.94,1.64.18-1.65c5.7.45,12.09.24,18.12-1.08-1.54,5.29-4.2,11.08-8.93,13.69-.09.05-.19.08-.28.13-1.04.11-2.09.17-3.16.17-1.01,0-2-.05-2.98-.15-1.37-.62-2.62-1.63-3.69-2.87-3.75-4.52-5.9-10.89-6.77-17.63l-1.4,1.94c1.12,6.38,3.4,12.32,7.09,16.63.46.52.94.97,1.43,1.39-5.96-1.31-11.23-4.44-15.2-8.76l-1.46,2.03c5.75,6.05,13.92,9.84,22.98,9.84,17.37,0,31.51-13.94,31.51-31.07S166.23.25,148.85.25ZM172.9,21.71c-8.43-4.92-19.13-6.03-28.75-5.33-2.31.2-4.79.54-7.29,1.07.23-.81.48-1.6.74-2.36,1.55-4.25,3.8-8.85,7.85-11.18,2.58-1.47,5.56-1.05,7.86.77,1.81,1.38,3.19,3.28,4.3,5.29l-1.51.76,2.25,1.2,2.25,1.2.33-2.5.33-2.5-1.46.73c-1.1-1.98-2.58-3.94-4.35-5.44,10.87,2.5,19.42,11.04,21.79,21.82-1.13-1.3-2.58-2.49-4.34-3.53ZM154.99,59.32c.42-.36.84-.74,1.24-1.18,2.95-3.33,4.93-7.69,6.17-12.43,4.74-1.16,9.2-3.03,12.85-5.85.7-.57,1.28-1.15,1.82-1.74-2.63,10.59-11.23,18.89-22.08,21.2Z"/>
  <g>
    <polygon class="cls-1" points="140.15 30.32 127.22 27.86 114.29 25.39 119.11 39.11 123.92 52.83 132.04 41.58 140.15 30.32"/>
    <path class="cls-1" d="M119.63,33.33c-15.91,8.36-38,16.84-46.77,35.7-10.81,23.24,3.6,38.2,23.79,30.67-11.58,4.32-27.54-.47-23.76-18.4,4.78-22.68,30.24-33.01,48.97-38.75,0,0-2.23-9.22-2.23-9.22h0Z"/>
  </g>
  <g>
    <path class="cls-3" d="M84.63,52h-2.13V.87h-11.27v60.66h4.42c2.57-3.57,5.61-6.72,8.98-9.53Z"/>
    <path class="cls-3" d="M86.59,61.53h27.63v-9.53h-12.99c-5.27,2.62-10.33,5.74-14.64,9.53Z"/>
  </g>
</svg>